<svg width="8" height="17" viewBox="0 0 8 17" fill="none" xmlns="http://www.w3.org/2000/svg">
<path fill-rule="evenodd" clip-rule="evenodd" d="M6.97998 0.939933H5.32996C4.89027 0.897298 4.44662 0.951295 4.02991 1.09789C3.61319 1.24449 3.23351 1.48028 2.91736 1.78881C2.60121 2.09734 2.35618 2.47101 2.19946 2.88403C2.04275 3.29704 1.97811 3.73933 2.01001 4.17992V5.98998H0.0200195V7.99999H2.01001L1.97998 16.01H5.01001V8.03002L6.75 7.99999L7.38 5.98998H4.97998V3.92992C4.98062 3.79795 5.0093 3.66767 5.06409 3.5476C5.11887 3.42753 5.19846 3.32036 5.29773 3.23339C5.39699 3.14642 5.51367 3.08174 5.63989 3.0432C5.76612 3.00467 5.89911 2.99329 6.03003 3.01H6.96997L6.97998 0.939933Z" fill="white"/>
</svg>
