<svg width="16" height="17" viewBox="0 0 16 17" fill="none" xmlns="http://www.w3.org/2000/svg">
<path fill-rule="evenodd" clip-rule="evenodd" d="M3.46399 1.91991C3.46424 2.16019 3.41359 2.39792 3.31531 2.61718C3.21703 2.83644 3.07339 3.03244 2.89386 3.19213C2.71432 3.35182 2.50297 3.47165 2.27374 3.54369C2.04452 3.61574 1.80264 3.63837 1.56403 3.6101C1.23588 3.57319 0.925455 3.44201 0.670288 3.23241C0.415121 3.02282 0.226102 2.74367 0.12616 2.42895C0.0262176 2.11422 0.0196198 1.77739 0.107117 1.45898C0.194614 1.14056 0.372468 0.854219 0.619202 0.634756C0.865935 0.415294 1.171 0.271935 1.49744 0.222159C1.82388 0.172383 2.15769 0.218284 2.45862 0.354239C2.75955 0.490194 3.0147 0.710408 3.19312 0.988272C3.37153 1.26614 3.46559 1.5897 3.46399 1.91991ZM0 16.01V4.98998H3.01099V16.01H0ZM5.01898 4.98998H7.70001L8.021 6.1101C8.3798 5.59872 8.86692 5.1908 9.43341 4.92748C9.9999 4.66416 10.6257 4.55474 11.248 4.6101C13.469 4.6101 15.004 5.90009 15.004 9.10009V15.98H12.004V9.58007C12.0245 9.27989 11.9833 8.97865 11.8828 8.69506C11.7822 8.41146 11.6246 8.1514 11.4196 7.93114C11.2146 7.71089 10.9666 7.53515 10.691 7.41454C10.4153 7.29393 10.1179 7.23105 9.81702 7.22997C9.4353 7.23477 9.0646 7.35877 8.7569 7.58471C8.44919 7.81064 8.21989 8.12722 8.10101 8.48998C8.01449 8.76118 7.97688 9.0457 7.98999 9.33007V15.98H5.013V4.98998H5.01898Z" fill="white"/>
</svg>
