<svg width="16" height="13" viewBox="0 0 16 13" fill="none" xmlns="http://www.w3.org/2000/svg">
<path fill-rule="evenodd" clip-rule="evenodd" d="M0.610009 1.17993C1.10001 1.44993 6.85 5.19008 7.1 5.33008C7.37855 5.47097 7.68802 5.53969 8.00002 5.53003C8.31523 5.53967 8.62794 5.471 8.91006 5.33008C9.16006 5.19008 14.91 1.44993 15.4 1.17993C15.89 0.909932 16.35 0.0600586 15.45 0.0600586H0.560082C-0.339918 0.0600586 0.120009 0.909932 0.610009 1.17993ZM15.6 3.23999C15.05 3.53999 9.25006 7.20989 8.91006 7.38989C8.63127 7.54 8.31606 7.60947 8.00002 7.59009C7.68717 7.60957 7.37515 7.54005 7.1 7.38989C6.76 7.20989 0.960048 3.53999 0.400048 3.23999C0.0100482 3.02999 0.0200433 3.26996 0.0200433 3.45996V11.02C0.0573156 11.2693 0.173612 11.5 0.35183 11.6782C0.530049 11.8564 0.760766 11.9727 1.01003 12.01H15C15.2486 11.9711 15.4785 11.8542 15.6564 11.6763C15.8343 11.4983 15.9511 11.2686 15.99 11.02V3.45996C15.99 3.26996 15.99 3.02999 15.6 3.23999Z" fill="white"/>
</svg>
