<svg width="17" height="14" viewBox="0 0 17 14" fill="none" xmlns="http://www.w3.org/2000/svg">
<path fill-rule="evenodd" clip-rule="evenodd" d="M16.98 1.65991C16.3461 1.9466 15.6713 2.13224 14.98 2.20996C15.7107 1.76588 16.2574 1.07379 16.52 0.26001C15.8351 0.670246 15.0838 0.957986 14.3 1.11011C13.9759 0.760182 13.5829 0.480799 13.1459 0.289795C12.7088 0.0987905 12.237 0.000172922 11.76 0C10.8305 0.00687134 9.94176 0.382483 9.28918 1.04443C8.63661 1.70638 8.27364 2.60052 8.28003 3.53003C8.27919 3.80257 8.30935 4.07438 8.37 4.34009C6.98109 4.26589 5.62383 3.8976 4.38782 3.25977C3.15181 2.62194 2.06517 1.72891 1.19995 0.639893C0.890881 1.18214 0.728893 1.79577 0.72998 2.41992C0.726515 2.99857 0.865164 3.56919 1.13367 4.08179C1.40217 4.59438 1.79236 5.03348 2.27002 5.36011C1.71778 5.34936 1.17734 5.19774 0.699951 4.91992V4.96997C0.6954 5.77978 0.970547 6.56637 1.47888 7.19678C1.98722 7.82719 2.69761 8.26273 3.48999 8.42993C3.19055 8.51437 2.88106 8.55822 2.56995 8.56006C2.3513 8.56205 2.13326 8.53849 1.92004 8.48999C2.13555 9.18895 2.56524 9.80246 3.14844 10.2439C3.73163 10.6853 4.43883 10.9323 5.17004 10.95C3.94402 11.9306 2.41992 12.4633 0.849976 12.46C0.572453 12.4638 0.295068 12.4471 0.0200195 12.4099C1.60291 13.4499 3.45603 14.0028 5.34998 14C6.66363 13.9985 7.96393 13.7362 9.17542 13.2283C10.3869 12.7203 11.4855 11.9769 12.4073 11.041C13.3292 10.1052 14.0561 8.99559 14.5458 7.77661C15.0355 6.55763 15.2783 5.25347 15.26 3.93994C15.26 3.78994 15.25 3.63999 15.25 3.48999C15.9302 2.98688 16.5158 2.36724 16.98 1.65991Z" fill="white"/>
</svg>
